<?xml version="1.0" encoding="utf-8"?>
<!-- Generator: Adobe Illustrator 19.0.0, SVG Export Plug-In . SVG Version: 6.00 Build 0)  -->
<svg version="1.1" id="Layer_1" xmlns="http://www.w3.org/2000/svg" xmlns:xlink="http://www.w3.org/1999/xlink" x="0px" y="0px"
	 viewBox="0 0 112.2 116.7" style="enable-background:new 0 0 112.2 116.7;" xml:space="preserve">
<style type="text/css">
	.st0{fill:#FF9660;}
</style>
<g id="XMLID_2_">
	<g id="XMLID_6_">
		<path id="XMLID_7_" class="st0" d="M97.2,113.3H15c-5,0-9.1-4.1-9.1-9.1V55.5c0-5,4.1-9.1,9.1-9.1h82.2c5,0,9.1,4.1,9.1,9.1v48.7
			C106.3,109.2,102.2,113.3,97.2,113.3L97.2,113.3z M15,55.5v48.7h82.2l0-48.7H15L15,55.5z"/>
	</g>
	<g id="XMLID_4_">
		<path id="XMLID_5_" class="st0" d="M85.4,54.4c-2.5,0-4.6-2-4.6-4.6V37.2c0-13.6-11.1-24.7-24.7-24.7c-13.6,0-24.7,11.1-24.7,24.7
			v12.6c0,2.5-2,4.6-4.6,4.6c-2.5,0-4.6-2-4.6-4.6V37.2c0-18.7,15.2-33.9,33.9-33.9C74.8,3.3,90,18.5,90,37.2v12.6
			C90,52.3,87.9,54.4,85.4,54.4L85.4,54.4z"/>
	</g>
	<path id="XMLID_3_" class="st0" d="M56.1,64.3c-5.3,0-9.5,4.3-9.5,9.5c0,3.6,2,6.7,4.9,8.3v10.7h9.1V82.1c2.9-1.6,5-4.7,5-8.3
		C65.6,68.5,61.3,64.3,56.1,64.3L56.1,64.3z"/>
</g>
</svg>
