<?xml version="1.0" encoding="utf-8"?>
<!-- Generator: Adobe Illustrator 19.0.0, SVG Export Plug-In . SVG Version: 6.00 Build 0)  -->
<svg version="1.1" id="Layer_1" xmlns="http://www.w3.org/2000/svg" xmlns:xlink="http://www.w3.org/1999/xlink" x="0px" y="0px"
	 viewBox="0 0 112.2 116.7" style="enable-background:new 0 0 112.2 116.7;" xml:space="preserve">
<style type="text/css">
	.st0{clip-path:url(#XMLID_44_);}
	.st1{clip-path:url(#XMLID_45_);fill:#FF9660;}
	.st2{clip-path:url(#XMLID_46_);}
	.st3{clip-path:url(#XMLID_47_);fill:#FF9660;}
	.st4{fill:#FF9660;}
</style>
<g id="XMLID_23_">
	<defs>
		<path id="XMLID_8_" d="M91.4,97.8c-1.1,0-2.3-0.4-3.2-1.3L17.6,26.6c-1.8-1.8-1.8-4.6,0-6.4c1.8-1.8,4.6-1.8,6.4,0L94.6,90
			c1.8,1.8,1.8,4.6,0,6.4C93.7,97.3,92.6,97.8,91.4,97.8"/>
	</defs>
	<use xlink:href="#XMLID_8_"  style="overflow:visible;fill-rule:evenodd;clip-rule:evenodd;fill:#FF9660;"/>
	<clipPath id="XMLID_44_">
		<use xlink:href="#XMLID_8_"  style="overflow:visible;"/>
	</clipPath>
	<g id="XMLID_25_" class="st0">
		<defs>
			<rect id="XMLID_9_" x="-269.2" y="-1610.7" width="2663.3" height="3295.3"/>
		</defs>
		<use xlink:href="#XMLID_9_"  style="overflow:visible;fill:#FF9660;"/>
		<clipPath id="XMLID_45_">
			<use xlink:href="#XMLID_9_"  style="overflow:visible;"/>
		</clipPath>
		<rect id="XMLID_10_" x="-6.3" y="-3.7" class="st1" width="124.8" height="124"/>
	</g>
</g>
<g id="XMLID_18_">
	<defs>
		<path id="XMLID_5_" d="M56,112.5c-14.4,0-27.9-5.6-38.2-15.9C5.3,84.1-0.2,66.8,2.7,49.2C6.5,25.9,25.5,7.6,49,4.6
			c18.6-2.4,36.9,4.8,48.9,19.2c1.6,1.9,1.3,4.8-0.6,6.4c-1.9,1.6-4.8,1.3-6.4-0.6c-9.9-12-25.2-18-40.8-16
			c-19.5,2.5-35.3,17.7-38.5,37.1c-2.4,14.7,2.2,29.2,12.6,39.6c10.4,10.4,24.8,15,39.6,12.6c19.4-3.2,35-19.7,37.2-39.3
			c0.5-4.5,0.3-9-0.5-13.4c-0.3-1.7-0.7-3.4-1.2-5.1c-0.7-2.4,0.6-4.9,3-5.6c2.4-0.7,4.9,0.6,5.6,3c0.6,2,1.1,4.1,1.5,6.1
			c1,5.2,1.2,10.6,0.6,16c-2.6,23.9-21,43.4-44.7,47.2C62.1,112.2,59.1,112.5,56,112.5"/>
	</defs>
	<use xlink:href="#XMLID_5_"  style="overflow:visible;fill-rule:evenodd;clip-rule:evenodd;fill:#FF9660;"/>
	<clipPath id="XMLID_46_">
		<use xlink:href="#XMLID_5_"  style="overflow:visible;"/>
	</clipPath>
	<g id="XMLID_20_" class="st2">
		<defs>
			<rect id="XMLID_6_" x="-269.2" y="-1610.8" width="2663.3" height="3295.3"/>
		</defs>
		<use xlink:href="#XMLID_6_"  style="overflow:visible;fill:#FF9660;"/>
		<clipPath id="XMLID_47_">
			<use xlink:href="#XMLID_6_"  style="overflow:visible;"/>
		</clipPath>
		<rect id="XMLID_7_" x="-20.6" y="-18.4" class="st3" width="153.5" height="153.5"/>
	</g>
</g>
<g id="XMLID_12_">
	<path id="XMLID_13_" class="st4" d="M59.6,55.2V35.3c2,0.7,3.7,2.1,4.9,3.9c1.1,1.6,3.2,2.1,4.9,1c1.6-1.1,2.1-3.2,1-4.9
		c-2.5-3.8-6.4-6.4-10.8-7.3v-5.6c0-1.9-1.6-3.5-3.5-3.5c-1.9,0-3.5,1.6-3.5,3.5V28C44.8,29.6,39,36.5,39,44.7
		c0,8.2,5.9,15.1,13.6,16.8v19.9c-2-0.7-3.7-2.1-4.9-3.9c-1.1-1.6-3.2-2.1-4.9-1c-1.6,1.1-2.1,3.2-1,4.9c2.5,3.8,6.4,6.4,10.8,7.3
		v5.6c0,1.9,1.6,3.5,3.5,3.5c1.9,0,3.5-1.6,3.5-3.5v-5.6c7.8-1.6,13.6-8.5,13.6-16.8C73.2,63.7,67.4,56.8,59.6,55.2L59.6,55.2z
		 M46,44.7c0-4.3,2.8-8,6.6-9.5v18.9C48.7,52.8,46,49.1,46,44.7L46,44.7z M59.6,81.4V62.5c3.8,1.4,6.6,5.1,6.6,9.5
		C66.2,76.3,63.4,80,59.6,81.4L59.6,81.4z M59.6,81.4"/>
</g>
</svg>
