<?xml version="1.0" encoding="utf-8"?>
<!-- Generator: Adobe Illustrator 19.0.0, SVG Export Plug-In . SVG Version: 6.00 Build 0)  -->
<svg version="1.1" id="Layer_1" xmlns="http://www.w3.org/2000/svg" xmlns:xlink="http://www.w3.org/1999/xlink" x="0px" y="0px"
	 viewBox="0 0 591 136" style="enable-background:new 0 0 591 136;" xml:space="preserve">
<style type="text/css">
	.st0{fill:#FFFFFF;}
	.st1{fill:url(#SVGID_1_);}
	.st2{fill:#CCCCCC;}
</style>
<g>
	<g>
		<path class="st0" d="M147,57.7h-6.1v-8.1h26.8c20.2,0,33.5,12.1,33.5,33c0,21-13.3,33.2-33.5,33.2H153c-4.2,0-6-1.8-6-6V57.7z
			 M158.4,107.8h8.6c14.7,0,24.4-8.8,24.4-25.1c0-16.2-9.8-25-24.4-25h-10.7v48C156.4,107.1,157.1,107.8,158.4,107.8z"/>
		<path class="st0" d="M210.7,78.2c0-1.4-0.8-2.1-2.1-2.1h-3.8v-7.8h8.9c4.2,0,6,1.8,6,6V106c0,1.4,0.8,2.1,2.1,2.1h3.8v7.8h-8.9
			c-4.2,0-6-1.8-6-6V78.2z M210.9,49.6h8.2v9.5h-8.2V49.6z"/>
		<path class="st0" d="M257.3,86.3h2.1v-0.5c0-8.4-3.1-11.4-10.5-11.4c-2.3,0-7.8,0.6-7.8,3.7v2.7h-8.5v-4.7
			c0-7.8,11.8-8.9,16.4-8.9c15.4,0,19.5,8.1,19.5,18.6V106c0,1.4,0.8,2.1,2.1,2.1h3.8v7.8h-8.5c-4.2,0-5.9-2.1-5.9-5.4
			c0-1.6,0.2-2.8,0.2-2.8H260c0,0-3.8,9.4-15.1,9.4c-8.2,0-16.1-5-16.1-14.5C228.7,87.3,249.4,86.3,257.3,86.3z M246.8,109.7
			c7.7,0,12.7-8.1,12.7-15.1V93h-2.3c-6.9,0-19.2,0.4-19.2,9.1C237.9,105.9,240.8,109.7,246.8,109.7z"/>
		<path class="st0" d="M281.5,78.2c0-1.4-0.8-2.1-2.1-2.1h-3.8v-7.8h8.6c4.1,0,6.1,1.7,6.1,5.5v3c0,1.9-0.2,3.3-0.2,3.3h0.2
			c2.3-6.9,7.7-12.4,15-12.4c1.2,0,2.4,0.2,2.4,0.2v9c0,0-1.2-0.3-2.7-0.3c-5.8,0-11.2,4.1-13.3,11.2c-0.8,2.7-1.1,5.6-1.1,8.5v19.4
			h-9.1V78.2z"/>
		<path class="st0" d="M315.4,78.2c0-1.4-0.8-2.1-2.1-2.1h-3.8v-7.8h9c4.2,0,6,1.8,6,6V106c0,1.4,0.8,2.1,2.1,2.1h3.8v7.8h-8.9
			c-4.3,0-6.1-1.8-6.1-6V78.2z M322.5,49.6h9.2l-8.9,11.9h-7.1L322.5,49.6z"/>
		<path class="st0" d="M337.4,102.6c0,0,5.6,7,14.4,7c4.4,0,8.3-2,8.3-6.1c0-8.5-25.9-7.6-25.9-22.9c0-9.1,8-13.3,17.6-13.3
			c5.7,0,15.6,2,15.6,9.2V81h-8.2v-2.3c0-2.8-4.2-4-7.1-4c-5.4,0-8.8,1.9-8.8,5.6c0,9,25.9,7,25.9,22.9c0,8.4-7.5,13.9-17.5,13.9
			c-12.7,0-19-8.4-19-8.4L337.4,102.6z"/>
		<path class="st0" d="M377.2,102.6c0,0,5.6,7,14.4,7c4.4,0,8.3-2,8.3-6.1c0-8.5-25.9-7.6-25.9-22.9c0-9.1,8-13.3,17.6-13.3
			c5.7,0,15.6,2,15.6,9.2V81h-8.2v-2.3c0-2.8-4.2-4-7.1-4c-5.3,0-8.8,1.9-8.8,5.6c0,9,25.9,7,25.9,22.9c0,8.4-7.5,13.9-17.5,13.9
			c-12.7,0-19-8.4-19-8.4L377.2,102.6z"/>
		<path class="st0" d="M418.2,78.2c0-1.4-0.8-2.1-2.1-2.1h-3.8v-7.8h8.9c4.2,0,6,1.8,6,6V106c0,1.4,0.8,2.1,2.1,2.1h3.8v7.8h-8.9
			c-4.2,0-6-1.8-6-6V78.2z M418.4,49.6h8.2v9.5h-8.2V49.6z"/>
		<path class="st0" d="M440.7,78.2c0-1.4-0.8-2.1-2.1-2.1h-3.8v-7.8h8.7c4.1,0,6,1.8,6,5.3v1.8c0,1.5-0.1,2.7-0.1,2.7h0.2
			c2.2-5.5,8.8-10.9,16.2-10.9c8.1,0,12.7,3.7,14.3,10.8h0.2c2.6-5.7,9.2-10.8,16.9-10.8c10.7,0,15.7,6.1,15.7,18.2V106
			c0,1.4,0.8,2.1,2.1,2.1h3.8v7.8h-9c-4.2,0-6-1.8-6-6V87.4c0-6.7-1.3-11.9-8.3-11.9c-6.6,0-11.6,5.7-13.3,12.2
			c-0.5,2-0.8,4-0.8,6.5v21.7h-9.1V87.4c0-6.2-0.9-11.9-8.2-11.9c-6.9,0-11.8,5.8-13.6,12.6c-0.5,1.9-0.7,3.9-0.7,6.1v21.7h-9.1
			V78.2z"/>
		<path class="st0" d="M549.9,86.3h2.1v-0.5c0-8.4-3.1-11.4-10.5-11.4c-2.3,0-7.8,0.6-7.8,3.7v2.7h-8.5v-4.7
			c0-7.8,11.8-8.9,16.4-8.9c15.4,0,19.5,8.1,19.5,18.6V106c0,1.4,0.8,2.1,2.1,2.1h3.8v7.8h-8.5c-4.2,0-5.9-2.1-5.9-5.4
			c0-1.6,0.2-2.8,0.2-2.8h-0.2c0,0-3.8,9.4-15.1,9.4c-8.2,0-16.1-5-16.1-14.5C521.3,87.3,542,86.3,549.9,86.3z M539.4,109.7
			c7.7,0,12.7-8.1,12.7-15.1V93h-2.3c-6.8,0-19.2,0.4-19.2,9.1C530.5,105.9,533.4,109.7,539.4,109.7z"/>
	</g>
</g>
<g>
	<g>
		<g>
			<linearGradient id="SVGID_1_" gradientUnits="userSpaceOnUse" x1="47.953" y1="78.8436" x2="96.9146" y2="78.8436">
				<stop  offset="0" style="stop-color:#F0506E"/>
				<stop  offset="1" style="stop-color:#F5885A"/>
			</linearGradient>
			<path class="st1" d="M93.2,54.8c-9-9.6-18.7,1-23.1,10.5c-5.4-6.5-13.8-10.9-19.5-1.5c-9,14.8,6.4,35.1,18.4,42.5
				c2.3,1.4,4.1-1.2,3.2-3.1c1.1,1.8,4.2,2.5,5.8,0.2C85.2,93.3,105.1,67.6,93.2,54.8z M89.8,62.6c-0.3-0.2-0.7-0.4-0.9-0.5
				c-1.9-1.2-3.7-2.5-5.5-3.9C86.9,56.6,89.1,59.2,89.8,62.6z M65.9,69.5c-2-1.6-4-3.3-6.1-4.9C62.3,64.8,64.4,67.1,65.9,69.5z
				 M72,102.8c-0.2-0.2-0.3-0.5-0.6-0.7c-2.9-2.2-5.5-4.7-7.8-7.5c0.6,0.5,1.1,1,1.6,1.4c2,1.6,4.3,3.7,7,4.3
				C71.7,101.2,71.7,102,72,102.8z M74.1,97.7c-5.4-1.6-10.2-5.8-14.8-9.5c-1.7-3-2.9-6.3-3.7-9.7c3.1,3.8,6.3,7.5,9.8,10.9
				c2.6,2.5,5.7,5.6,9.1,7.8C74.4,97.3,74.2,97.5,74.1,97.7z M76.6,94.2c-3-2.3-6.4-4.4-9.3-6.8c-4.2-3.5-8-7.4-11.5-11.5
				c-0.2-0.2-0.5-0.3-0.7-0.2c0-0.3-0.1-0.5-0.1-0.8c0-0.4-0.1-0.8-0.1-1.3c3.6,3.9,7.5,7.6,11.5,11.1c3.2,2.9,6.9,6.4,10.9,8.6
				C77,93.6,76.8,93.9,76.6,94.2z M79.2,90.6c-3.8-3.2-8.6-5.8-12.5-8.9c-4.2-3.3-8-6.9-11.8-10.7c0.1-0.8,0.2-1.6,0.4-2.3
				c3.2,4.2,7.2,7.8,11.3,11.3c3.4,2.9,8.3,8.1,12.9,10C79.5,90.1,79.3,90.4,79.2,90.6z M81.7,86.8c-1.2-1-2.6-1.7-3.8-2.6
				c-3.5-2.3-6.8-4.8-10.1-7.4c-3.9-3-8.4-6.2-11.9-9.7c0.4-0.8,0.9-1.5,1.6-1.9c7.1,7.2,15.7,15.6,24.9,20.5
				C82.1,86.1,81.9,86.5,81.7,86.8z M84.3,82.6c-3.7-2.5-7.5-4.8-11.1-7.4C73,75.1,73,75,72.9,75c0.6-0.4,1.1-0.9,1.2-1.7
				c0-0.3,0.1-0.6,0.2-0.8c1.4,1.3,2.9,2.5,4.5,3.7c2,1.5,4.4,3.4,6.8,4.2C85.1,81,84.7,81.8,84.3,82.6z M87,77.3
				c-1.8-1.3-4-2.3-5.8-3.4C79,72.5,77,70.9,75,69.2c0.3-1,0.6-1.9,1-2.8c2,1.8,4,3.7,6.2,5.3c1.5,1.2,3.7,3,5.9,3
				C87.7,75.6,87.4,76.4,87,77.3z M89,71.9c-1.6-1.2-3.9-1.9-5.6-3.1c-2.1-1.4-4.2-3.1-6.2-4.7c0.3-0.5,0.6-1,1-1.5
				c2,1.6,3.9,3.3,5.8,5c1.5,1.3,3.1,3.3,5,4.2C89,71.8,89,71.8,89,71.9z M85.7,65.4c-2-1.5-4-3-6-4.6c0.3-0.4,0.7-0.7,1.1-1
				c1.6,1.5,3.5,2.9,5.3,4.1c1.2,0.8,2.5,2.1,3.9,3c0,0.4-0.1,0.9-0.1,1.3C88.5,67.2,86.9,66.3,85.7,65.4z"/>
		</g>
	</g>
	<path class="st2" d="M131.9,69.7c-18.6-18.5-36-39.1-60.4-52.4c-1.9-1-3.9-0.2-5.1,1.1C49.2,37.2,27.3,53.1,15,75
		c-1.2,2.1,0.2,4.7,3.2,4.7c5.2,0,10.4,0,15.6-0.1c-0.6,12.4-0.8,24.7,1.3,37.1c0.4,2.4,5,1.8,4.9-0.6c-0.8-13.3-0.1-26.3,1.1-39.5
		c0.1-1.7-1.7-3-3.6-3c-4.4-0.1-8.8,0-13.3-0.1c12-18.4,30.7-33,46.1-49.3c20.6,12,36.2,29.5,52.1,45.7c-5.3,0.6-10.5,0.5-16.1,0.4
		c-2,0-3.7,1.4-3.7,3.1c0,8-0.2,16,0,24c0.1,3,0.4,6.1,0.5,9.1c0.1,1.5,0.1,2.9,0,4.4c-0.2,0.6-0.2,1.1-0.2,1.4
		c-0.6,1-0.6,2.3,0.3,3.2c0.2,0.2,0.3,0.3,0.5,0.5c0.9,0.8,2.7,1.1,3.8,0.4c4.4-2.6,3-8.4,2.8-12.3c-0.4-9.2-0.4-18.3-0.4-27.5
		c6.9,0.1,13.5-0.1,20.2-1.7C133.1,74.2,133.7,71.4,131.9,69.7z"/>
</g>
</svg>
