<?xml version="1.0" encoding="utf-8"?>
<!-- Generator: Adobe Illustrator 19.0.0, SVG Export Plug-In . SVG Version: 6.00 Build 0)  -->
<svg version="1.1" id="Layer_1" xmlns="http://www.w3.org/2000/svg" xmlns:xlink="http://www.w3.org/1999/xlink" x="0px" y="0px"
	 viewBox="-78 349 454 96" style="enable-background:new -78 349 454 96;" xml:space="preserve">
<style type="text/css">
	.st0{fill:#FFFFFF;}
	.st1{fill:url(#SVGID_1_);}
	.st2{fill:#DCDDDF;}
</style>
<g>
	<g>
		<path class="st0" d="M35.7,388.8h-4.8v-6.3H52c15.9,0,26.3,9.5,26.3,26S67.8,434.6,52,434.6H40.4c-3.3,0-4.7-1.4-4.7-4.7
			C35.7,429.9,35.7,388.8,35.7,388.8z M44.7,428.2h6.8c11.6,0,19.2-6.9,19.2-19.8c0-12.8-7.7-19.6-19.2-19.6h-8.4v37.8
			C43.1,427.6,43.7,428.2,44.7,428.2z"/>
		<path class="st0" d="M85.8,404.9c0-1.1-0.6-1.6-1.6-1.6h-3v-6.1h7c3.3,0,4.7,1.4,4.7,4.7v24.9c0,1.1,0.6,1.6,1.6,1.6h3v6.1h-7
			c-3.3,0-4.7-1.4-4.7-4.7V404.9z M86,382.4h6.4v7.5H86V382.4z"/>
		<path class="st0" d="M122.5,411.3h1.6v-0.4c0-6.6-2.4-8.9-8.3-8.9c-1.8,0-6.1,0.4-6.1,2.9v2.1H103v-3.7c0-6.1,9.3-7,12.9-7
			c12.1,0,15.3,6.3,15.3,14.6v15.9c0,1.1,0.6,1.6,1.6,1.6h3v6.1h-6.7c-3.3,0-4.6-1.6-4.6-4.3c0-1.3,0.1-2.2,0.1-2.2h-0.1
			c0,0-3,7.4-11.9,7.4c-6.4,0-12.7-3.9-12.7-11.4C100,412,116.2,411.3,122.5,411.3z M114.2,429.7c6.1,0,10-6.3,10-11.9v-1.3h-1.8
			c-5.4,0-15.1,0.3-15.1,7.2C107.2,426.7,109.5,429.7,114.2,429.7z"/>
		<path class="st0" d="M141.5,404.9c0-1.1-0.6-1.6-1.6-1.6h-3v-6.1h6.8c3.2,0,4.8,1.3,4.8,4.4v2.4c0,1.5-0.1,2.6-0.1,2.6h0.1
			c1.8-5.5,6.1-9.7,11.8-9.7c1,0,1.9,0.1,1.9,0.1v7c0,0-1-0.2-2.1-0.2c-4.6,0-8.8,3.2-10.5,8.8c-0.7,2.1-0.9,4.4-0.9,6.7v15.3h-7.2
			V404.9z"/>
		<path class="st0" d="M168.2,404.9c0-1.1-0.6-1.6-1.6-1.6h-3v-6.1h7.1c3.3,0,4.7,1.4,4.7,4.7v24.9c0,1.1,0.6,1.6,1.6,1.6h3v6.1h-7
			c-3.4,0-4.8-1.4-4.8-4.7V404.9z M173.7,382.4h7.2l-7,9.4h-5.6L173.7,382.4z"/>
		<path class="st0" d="M185.4,424.1c0,0,4.4,5.5,11.3,5.5c3.5,0,6.5-1.5,6.5-4.8c0-6.7-20.4-6-20.4-18c0-7.2,6.3-10.5,13.9-10.5
			c4.5,0,12.2,1.5,12.2,7.2v3.5h-6.4v-1.8c0-2.2-3.3-3.2-5.6-3.2c-4.2,0-6.9,1.5-6.9,4.4c0,7.1,20.4,5.5,20.4,18
			c0,6.6-5.9,10.9-13.7,10.9c-10,0-14.9-6.6-14.9-6.6L185.4,424.1z"/>
		<path class="st0" d="M216.7,424.1c0,0,4.4,5.5,11.3,5.5c3.5,0,6.5-1.5,6.5-4.8c0-6.7-20.4-6-20.4-18c0-7.2,6.3-10.5,13.9-10.5
			c4.5,0,12.2,1.5,12.2,7.2v3.5h-6.4v-1.8c0-2.2-3.3-3.2-5.6-3.2c-4.2,0-6.9,1.5-6.9,4.4c0,7.1,20.4,5.5,20.4,18
			c0,6.6-5.9,10.9-13.7,10.9c-10,0-14.9-6.6-14.9-6.6L216.7,424.1z"/>
		<path class="st0" d="M249,404.9c0-1.1-0.6-1.6-1.6-1.6h-3v-6.1h7c3.3,0,4.7,1.4,4.7,4.7v24.9c0,1.1,0.6,1.6,1.6,1.6h3v6.1h-7
			c-3.3,0-4.7-1.4-4.7-4.7V404.9z M249.1,382.4h6.4v7.5h-6.4V382.4z"/>
		<path class="st0" d="M266.7,404.9c0-1.1-0.6-1.6-1.6-1.6h-3v-6.1h6.9c3.2,0,4.7,1.4,4.7,4.1v1.4c0,1.2-0.1,2.1-0.1,2.1h0.1
			c1.8-4.4,6.9-8.6,12.8-8.6c6.3,0,10,2.9,11.2,8.5h0.1c2.1-4.5,7.2-8.5,13.3-8.5c8.4,0,12.3,4.8,12.3,14.3v16.2
			c0,1.1,0.6,1.6,1.6,1.6h3v6.1h-7c-3.3,0-4.7-1.4-4.7-4.7v-17.5c0-5.2-1-9.4-6.6-9.4c-5.2,0-9.2,4.5-10.5,9.6
			c-0.4,1.5-0.6,3.2-0.6,5.1v17h-7.2v-22.3c0-4.9-0.7-9.4-6.4-9.4c-5.5,0-9.3,4.6-10.7,9.9c-0.4,1.5-0.5,3.1-0.5,4.8v17h-7.2v-29.6
			H266.7z"/>
		<path class="st0" d="M352.6,411.3h1.6v-0.4c0-6.6-2.4-8.9-8.3-8.9c-1.8,0-6.1,0.4-6.1,2.9v2.1h-6.7v-3.7c0-6.1,9.3-7,12.9-7
			c12.1,0,15.3,6.3,15.3,14.6v15.9c0,1.1,0.6,1.6,1.6,1.6h3v6.1h-6.7c-3.3,0-4.7-1.6-4.7-4.3c0-1.3,0.1-2.2,0.1-2.2h-0.1
			c0,0-3,7.4-11.9,7.4c-6.4,0-12.7-3.9-12.7-11.4C330.1,412,346.3,411.3,352.6,411.3z M344.3,429.7c6.1,0,10-6.3,10-11.9v-1.3h-1.8
			c-5.4,0-15.1,0.3-15.1,7.2C337.3,426.7,339.6,429.7,344.3,429.7z"/>
	</g>
</g>
<g>
	<g>
		<g>
			
				<linearGradient id="SVGID_1_" gradientUnits="userSpaceOnUse" x1="-42.1357" y1="390.589" x2="-3.6645" y2="390.589" gradientTransform="matrix(1 0 0 -1 0 796)">
				<stop  offset="0" style="stop-color:#F0506E"/>
				<stop  offset="1" style="stop-color:#F5885A"/>
			</linearGradient>
			<path class="st1" d="M-6.6,386.5c-7.1-7.6-14.7,0.8-18.1,8.2c-4.2-5.1-10.9-8.5-15.3-1.2c-7.1,11.7,5,27.7,14.4,33.5
				c1.8,1.1,3.2-0.9,2.6-2.5c0.9,1.4,3.3,1.9,4.6,0.1C-12.9,416.7,2.8,396.6-6.6,386.5z M-9.3,392.6c-0.3-0.1-0.5-0.3-0.7-0.4
				c-1.5-0.9-2.9-2-4.3-3.1C-11.6,387.9-9.8,389.9-9.3,392.6z M-28,398.1c-1.6-1.3-3.2-2.6-4.8-3.9C-30.9,394.4-29.3,396.2-28,398.1
				z M-23.2,424.2c-0.1-0.2-0.3-0.4-0.5-0.5c-2.3-1.7-4.3-3.7-6.1-5.9c0.4,0.4,0.8,0.8,1.3,1.1c1.6,1.3,3.4,2.9,5.5,3.4
				C-23.5,423-23.5,423.7-23.2,424.2z M-21.6,420.2c-4.2-1.3-8.1-4.6-11.6-7.5c-1.3-2.4-2.3-4.9-2.9-7.6c2.4,3,4.9,5.9,7.7,8.5
				c2.1,2,4.5,4.4,7.1,6.1C-21.4,419.9-21.5,420.1-21.6,420.2z M-19.7,417.5c-2.4-1.8-5.1-3.4-7.3-5.3c-3.3-2.7-6.3-5.8-9-9
				c-0.2-0.2-0.4-0.2-0.6-0.2c0-0.2-0.1-0.4-0.1-0.6c0-0.3-0.1-0.7-0.1-1c2.9,3.1,5.9,5.9,9,8.7c2.5,2.2,5.4,5,8.5,6.8
				C-19.3,417-19.5,417.3-19.7,417.5z M-17.6,414.6c-3-2.5-6.8-4.6-9.8-7c-3.3-2.6-6.3-5.4-9.3-8.4c0.1-0.6,0.2-1.2,0.3-1.8
				c2.6,3.3,5.7,6.1,8.9,8.9c2.7,2.3,6.5,6.3,10.2,7.8C-17.4,414.3-17.5,414.5-17.6,414.6z M-15.6,411.7c-0.9-0.8-2-1.3-3-2
				c-2.7-1.8-5.3-3.8-7.9-5.8c-3.1-2.4-6.6-4.9-9.3-7.6c0.3-0.6,0.7-1.2,1.2-1.5c5.6,5.6,12.3,12.3,19.6,16.1
				C-15.3,411.1-15.5,411.4-15.6,411.7z M-13.6,408.3c-2.9-2-5.9-3.8-8.8-5.8c-0.1,0-0.1-0.1-0.2-0.2c0.5-0.3,0.8-0.7,1-1.4
				c0-0.2,0.1-0.4,0.1-0.7c1.1,1,2.3,2,3.5,2.9c1.6,1.2,3.4,2.7,5.4,3.3C-12.9,407.1-13.3,407.7-13.6,408.3z M-11.5,404.2
				c-1.4-1.1-3.1-1.8-4.6-2.7c-1.7-1.1-3.3-2.3-4.8-3.6c0.2-0.8,0.5-1.5,0.8-2.2c1.6,1.4,3.2,2.9,4.8,4.2c1.2,1,2.9,2.4,4.6,2.3
				C-10.9,402.8-11.2,403.5-11.5,404.2z M-9.9,399.9c-1.3-1-3.1-1.5-4.4-2.4c-1.7-1.1-3.3-2.4-4.9-3.7c0.2-0.4,0.5-0.8,0.8-1.2
				c1.5,1.3,3.1,2.6,4.6,3.9C-12.7,397.6-11.4,399.1-9.9,399.9L-9.9,399.9z M-12.5,394.8c-1.6-1.2-3.1-2.4-4.7-3.6
				c0.3-0.3,0.6-0.5,0.9-0.8c1.3,1.2,2.7,2.2,4.1,3.3c0.9,0.7,1.9,1.6,3,2.4c0,0.3-0.1,0.7-0.1,1C-10.3,396.2-11.5,395.5-12.5,394.8
				z"/>
		</g>
	</g>
	<path class="st2" d="M23.8,398.2C9.2,383.7-4.5,367.4-23.7,357c-1.5-0.8-3.1-0.1-4,0.9c-13.5,14.8-30.7,27.3-40.4,44.5
		c-0.9,1.6,0.2,3.6,2.5,3.6c4.1,0,8.2,0,12.2-0.1c-0.4,9.8-0.6,19.5,1,29.2c0.3,1.8,3.9,1.4,3.8-0.4c-0.6-10.4-0.1-20.7,0.9-31.1
		c0.1-1.3-1.4-2.4-2.8-2.4c-3.5,0-7,0-10.4,0c9.4-14.5,24.1-25.9,36.3-38.8c16.2,9.4,28.5,23.2,41,36c-4.2,0.5-8.3,0.4-12.7,0.3
		c-1.6,0-2.9,1.1-2.9,2.5c0,6.3-0.1,12.6,0,18.9c0.1,2.4,0.3,4.8,0.4,7.2c0.1,1.1,0.1,2.3,0,3.4c-0.1,0.5-0.2,0.9-0.1,1.1
		c-0.5,0.8-0.5,1.8,0.2,2.5c0.1,0.1,0.3,0.3,0.4,0.4c0.7,0.7,2.2,0.8,3,0.3c3.5-2.1,2.4-6.6,2.2-9.7c-0.3-7.2-0.3-14.4-0.3-21.6
		c5.4,0,10.6-0.1,15.9-1.3C24.8,401.8,25.2,399.6,23.8,398.2z"/>
</g>
</svg>
